<mxfile host="Electron" agent="Mozilla/5.0 (Windows NT 10.0; Win64; x64) AppleWebKit/537.36 (KHTML, like Gecko) draw.io/24.7.8 Chrome/128.0.6613.36 Electron/32.0.1 Safari/537.36" version="24.7.8">
  <diagram name="Page-1" id="azjqvyK8LLOSUk3nw5zU">
    <mxGraphModel dx="2827" dy="1734" grid="1" gridSize="10" guides="1" tooltips="1" connect="1" arrows="1" fold="1" page="1" pageScale="1" pageWidth="827" pageHeight="1169" math="0" shadow="0">
      <root>
        <mxCell id="0" />
        <mxCell id="1" parent="0" />
        <mxCell id="gLgQugJnE0icH2_p7Kl2-30" style="edgeStyle=orthogonalEdgeStyle;rounded=0;orthogonalLoop=1;jettySize=auto;html=1;" parent="1" source="gLgQugJnE0icH2_p7Kl2-20" target="gLgQugJnE0icH2_p7Kl2-2" edge="1">
          <mxGeometry relative="1" as="geometry" />
        </mxCell>
        <mxCell id="gLgQugJnE0icH2_p7Kl2-32" value="Place" style="swimlane;fontStyle=0;childLayout=stackLayout;horizontal=1;startSize=30;horizontalStack=0;resizeParent=1;resizeParentMax=0;resizeLast=0;collapsible=1;marginBottom=0;whiteSpace=wrap;html=1;movable=1;resizable=1;rotatable=1;deletable=1;editable=1;locked=0;connectable=1;" parent="1" vertex="1">
          <mxGeometry x="440" y="10" width="180" height="592" as="geometry" />
        </mxCell>
        <mxCell id="gLgQugJnE0icH2_p7Kl2-33" value="ID : ObjectID" style="text;strokeColor=none;fillColor=none;align=left;verticalAlign=middle;spacingLeft=4;spacingRight=4;overflow=hidden;points=[[0,0.5],[1,0.5]];portConstraint=eastwest;rotatable=0;whiteSpace=wrap;html=1;" parent="gLgQugJnE0icH2_p7Kl2-32" vertex="1">
          <mxGeometry y="30" width="180" height="30" as="geometry" />
        </mxCell>
        <mxCell id="dwiPANAmoAHTWbCAyr36-1" value="owner : user ID" style="text;strokeColor=none;fillColor=none;align=left;verticalAlign=middle;spacingLeft=4;spacingRight=4;overflow=hidden;points=[[0,0.5],[1,0.5]];portConstraint=eastwest;rotatable=0;whiteSpace=wrap;html=1;" parent="gLgQugJnE0icH2_p7Kl2-32" vertex="1">
          <mxGeometry y="60" width="180" height="30" as="geometry" />
        </mxCell>
        <mxCell id="gLgQugJnE0icH2_p7Kl2-72" value="name : String" style="text;strokeColor=none;fillColor=none;align=left;verticalAlign=top;spacingLeft=4;spacingRight=4;overflow=hidden;rotatable=0;points=[[0,0.5],[1,0.5]];portConstraint=eastwest;whiteSpace=wrap;html=1;" parent="gLgQugJnE0icH2_p7Kl2-32" vertex="1">
          <mxGeometry y="90" width="180" height="26" as="geometry" />
        </mxCell>
        <mxCell id="gLgQugJnE0icH2_p7Kl2-61" value="categorie : String" style="text;strokeColor=none;fillColor=none;align=left;verticalAlign=top;spacingLeft=4;spacingRight=4;overflow=hidden;rotatable=0;points=[[0,0.5],[1,0.5]];portConstraint=eastwest;whiteSpace=wrap;html=1;" parent="gLgQugJnE0icH2_p7Kl2-32" vertex="1">
          <mxGeometry y="116" width="180" height="26" as="geometry" />
        </mxCell>
        <mxCell id="gLgQugJnE0icH2_p7Kl2-35" value="notation : number" style="text;strokeColor=none;fillColor=none;align=left;verticalAlign=middle;spacingLeft=4;spacingRight=4;overflow=hidden;points=[[0,0.5],[1,0.5]];portConstraint=eastwest;rotatable=0;whiteSpace=wrap;html=1;" parent="gLgQugJnE0icH2_p7Kl2-32" vertex="1">
          <mxGeometry y="142" width="180" height="30" as="geometry" />
        </mxCell>
        <mxCell id="gLgQugJnE0icH2_p7Kl2-34" value="NumberOfNote: number" style="text;strokeColor=none;fillColor=none;align=left;verticalAlign=middle;spacingLeft=4;spacingRight=4;overflow=hidden;points=[[0,0.5],[1,0.5]];portConstraint=eastwest;rotatable=0;whiteSpace=wrap;html=1;" parent="gLgQugJnE0icH2_p7Kl2-32" vertex="1">
          <mxGeometry y="172" width="180" height="30" as="geometry" />
        </mxCell>
        <mxCell id="gLgQugJnE0icH2_p7Kl2-36" value="describe: string" style="text;strokeColor=none;fillColor=none;align=left;verticalAlign=top;spacingLeft=4;spacingRight=4;overflow=hidden;rotatable=0;points=[[0,0.5],[1,0.5]];portConstraint=eastwest;whiteSpace=wrap;html=1;" parent="gLgQugJnE0icH2_p7Kl2-32" vertex="1">
          <mxGeometry y="202" width="180" height="26" as="geometry" />
        </mxCell>
        <mxCell id="gLgQugJnE0icH2_p7Kl2-60" value="moreInfo: Array&amp;lt;object&amp;gt;" style="text;strokeColor=none;fillColor=none;align=left;verticalAlign=top;spacingLeft=4;spacingRight=4;overflow=hidden;rotatable=0;points=[[0,0.5],[1,0.5]];portConstraint=eastwest;whiteSpace=wrap;html=1;" parent="gLgQugJnE0icH2_p7Kl2-32" vertex="1">
          <mxGeometry y="228" width="180" height="26" as="geometry" />
        </mxCell>
        <mxCell id="gLgQugJnE0icH2_p7Kl2-57" value="street : string" style="text;strokeColor=none;fillColor=none;align=left;verticalAlign=top;spacingLeft=4;spacingRight=4;overflow=hidden;rotatable=0;points=[[0,0.5],[1,0.5]];portConstraint=eastwest;whiteSpace=wrap;html=1;" parent="gLgQugJnE0icH2_p7Kl2-32" vertex="1">
          <mxGeometry y="254" width="180" height="26" as="geometry" />
        </mxCell>
        <mxCell id="gLgQugJnE0icH2_p7Kl2-58" value="city : string" style="text;strokeColor=none;fillColor=none;align=left;verticalAlign=top;spacingLeft=4;spacingRight=4;overflow=hidden;rotatable=0;points=[[0,0.5],[1,0.5]];portConstraint=eastwest;whiteSpace=wrap;html=1;" parent="gLgQugJnE0icH2_p7Kl2-32" vertex="1">
          <mxGeometry y="280" width="180" height="26" as="geometry" />
        </mxCell>
        <mxCell id="gLgQugJnE0icH2_p7Kl2-59" value="codepostal : number" style="text;strokeColor=none;fillColor=none;align=left;verticalAlign=top;spacingLeft=4;spacingRight=4;overflow=hidden;rotatable=0;points=[[0,0.5],[1,0.5]];portConstraint=eastwest;whiteSpace=wrap;html=1;" parent="gLgQugJnE0icH2_p7Kl2-32" vertex="1">
          <mxGeometry y="306" width="180" height="26" as="geometry" />
        </mxCell>
        <mxCell id="gLgQugJnE0icH2_p7Kl2-62" value="county : string" style="text;strokeColor=none;fillColor=none;align=left;verticalAlign=top;spacingLeft=4;spacingRight=4;overflow=hidden;rotatable=0;points=[[0,0.5],[1,0.5]];portConstraint=eastwest;whiteSpace=wrap;html=1;" parent="gLgQugJnE0icH2_p7Kl2-32" vertex="1">
          <mxGeometry y="332" width="180" height="26" as="geometry" />
        </mxCell>
        <mxCell id="gLgQugJnE0icH2_p7Kl2-63" value="country : string" style="text;strokeColor=none;fillColor=none;align=left;verticalAlign=top;spacingLeft=4;spacingRight=4;overflow=hidden;rotatable=0;points=[[0,0.5],[1,0.5]];portConstraint=eastwest;whiteSpace=wrap;html=1;" parent="gLgQugJnE0icH2_p7Kl2-32" vertex="1">
          <mxGeometry y="358" width="180" height="26" as="geometry" />
        </mxCell>
        <mxCell id="gLgQugJnE0icH2_p7Kl2-64" value="latCoordinate : string" style="text;strokeColor=none;fillColor=none;align=left;verticalAlign=top;spacingLeft=4;spacingRight=4;overflow=hidden;rotatable=0;points=[[0,0.5],[1,0.5]];portConstraint=eastwest;whiteSpace=wrap;html=1;" parent="gLgQugJnE0icH2_p7Kl2-32" vertex="1">
          <mxGeometry y="384" width="180" height="26" as="geometry" />
        </mxCell>
        <mxCell id="gLgQugJnE0icH2_p7Kl2-65" value="lonCoordinate : string" style="text;strokeColor=none;fillColor=none;align=left;verticalAlign=top;spacingLeft=4;spacingRight=4;overflow=hidden;rotatable=0;points=[[0,0.5],[1,0.5]];portConstraint=eastwest;whiteSpace=wrap;html=1;" parent="gLgQugJnE0icH2_p7Kl2-32" vertex="1">
          <mxGeometry y="410" width="180" height="26" as="geometry" />
        </mxCell>
        <mxCell id="gLgQugJnE0icH2_p7Kl2-73" value="phone : string|null" style="text;strokeColor=none;fillColor=none;align=left;verticalAlign=top;spacingLeft=4;spacingRight=4;overflow=hidden;rotatable=0;points=[[0,0.5],[1,0.5]];portConstraint=eastwest;whiteSpace=wrap;html=1;" parent="gLgQugJnE0icH2_p7Kl2-32" vertex="1">
          <mxGeometry y="436" width="180" height="26" as="geometry" />
        </mxCell>
        <mxCell id="gLgQugJnE0icH2_p7Kl2-85" value="typeOfPlace : Array&amp;lt;string&amp;gt;" style="text;strokeColor=none;fillColor=none;align=left;verticalAlign=top;spacingLeft=4;spacingRight=4;overflow=hidden;rotatable=0;points=[[0,0.5],[1,0.5]];portConstraint=eastwest;whiteSpace=wrap;html=1;" parent="gLgQugJnE0icH2_p7Kl2-32" vertex="1">
          <mxGeometry y="462" width="180" height="26" as="geometry" />
        </mxCell>
        <mxCell id="gLgQugJnE0icH2_p7Kl2-75" value="email : string|null" style="text;strokeColor=none;fillColor=none;align=left;verticalAlign=top;spacingLeft=4;spacingRight=4;overflow=hidden;rotatable=0;points=[[0,0.5],[1,0.5]];portConstraint=eastwest;whiteSpace=wrap;html=1;" parent="gLgQugJnE0icH2_p7Kl2-32" vertex="1">
          <mxGeometry y="488" width="180" height="26" as="geometry" />
        </mxCell>
        <mxCell id="gLgQugJnE0icH2_p7Kl2-87" value="Booking : URL(string)" style="text;strokeColor=none;fillColor=none;align=left;verticalAlign=top;spacingLeft=4;spacingRight=4;overflow=hidden;rotatable=0;points=[[0,0.5],[1,0.5]];portConstraint=eastwest;whiteSpace=wrap;html=1;" parent="gLgQugJnE0icH2_p7Kl2-32" vertex="1">
          <mxGeometry y="514" width="180" height="26" as="geometry" />
        </mxCell>
        <mxCell id="gLgQugJnE0icH2_p7Kl2-88" value="create_at : Date" style="text;strokeColor=none;fillColor=none;align=left;verticalAlign=top;spacingLeft=4;spacingRight=4;overflow=hidden;rotatable=0;points=[[0,0.5],[1,0.5]];portConstraint=eastwest;whiteSpace=wrap;html=1;" parent="gLgQugJnE0icH2_p7Kl2-32" vertex="1">
          <mxGeometry y="540" width="180" height="26" as="geometry" />
        </mxCell>
        <mxCell id="SF39tjZxRLqpiit2FNkD-3" value="udapte_at : Date" style="text;strokeColor=none;fillColor=none;align=left;verticalAlign=top;spacingLeft=4;spacingRight=4;overflow=hidden;rotatable=0;points=[[0,0.5],[1,0.5]];portConstraint=eastwest;whiteSpace=wrap;html=1;" parent="gLgQugJnE0icH2_p7Kl2-32" vertex="1">
          <mxGeometry y="566" width="180" height="26" as="geometry" />
        </mxCell>
        <mxCell id="gLgQugJnE0icH2_p7Kl2-42" value="Photo" style="swimlane;fontStyle=0;childLayout=stackLayout;horizontal=1;startSize=30;horizontalStack=0;resizeParent=1;resizeParentMax=0;resizeLast=0;collapsible=1;marginBottom=0;whiteSpace=wrap;html=1;movable=1;resizable=1;rotatable=1;deletable=1;editable=1;locked=0;connectable=1;" parent="1" vertex="1">
          <mxGeometry x="210" y="360" width="140" height="202" as="geometry" />
        </mxCell>
        <mxCell id="gLgQugJnE0icH2_p7Kl2-43" value="ID : string" style="text;strokeColor=none;fillColor=none;align=left;verticalAlign=middle;spacingLeft=4;spacingRight=4;overflow=hidden;points=[[0,0.5],[1,0.5]];portConstraint=eastwest;rotatable=0;whiteSpace=wrap;html=1;" parent="gLgQugJnE0icH2_p7Kl2-42" vertex="1">
          <mxGeometry y="30" width="140" height="30" as="geometry" />
        </mxCell>
        <mxCell id="2NUHbjCnlBnLdzkoU7pd-1" value="List Item" style="text;strokeColor=none;fillColor=none;align=left;verticalAlign=middle;spacingLeft=4;spacingRight=4;overflow=hidden;points=[[0,0.5],[1,0.5]];portConstraint=eastwest;rotatable=0;whiteSpace=wrap;html=1;" parent="gLgQugJnE0icH2_p7Kl2-42" vertex="1">
          <mxGeometry y="60" width="140" height="30" as="geometry" />
        </mxCell>
        <mxCell id="gLgQugJnE0icH2_p7Kl2-44" value="place : ID Place" style="text;strokeColor=none;fillColor=none;align=left;verticalAlign=middle;spacingLeft=4;spacingRight=4;overflow=hidden;points=[[0,0.5],[1,0.5]];portConstraint=eastwest;rotatable=0;whiteSpace=wrap;html=1;" parent="gLgQugJnE0icH2_p7Kl2-42" vertex="1">
          <mxGeometry y="90" width="140" height="30" as="geometry" />
        </mxCell>
        <mxCell id="gLgQugJnE0icH2_p7Kl2-45" value="user_id : ID User" style="text;strokeColor=none;fillColor=none;align=left;verticalAlign=middle;spacingLeft=4;spacingRight=4;overflow=hidden;points=[[0,0.5],[1,0.5]];portConstraint=eastwest;rotatable=0;whiteSpace=wrap;html=1;" parent="gLgQugJnE0icH2_p7Kl2-42" vertex="1">
          <mxGeometry y="120" width="140" height="30" as="geometry" />
        </mxCell>
        <mxCell id="gLgQugJnE0icH2_p7Kl2-46" value="path : string" style="text;strokeColor=none;fillColor=none;align=left;verticalAlign=top;spacingLeft=4;spacingRight=4;overflow=hidden;rotatable=0;points=[[0,0.5],[1,0.5]];portConstraint=eastwest;whiteSpace=wrap;html=1;" parent="gLgQugJnE0icH2_p7Kl2-42" vertex="1">
          <mxGeometry y="150" width="140" height="26" as="geometry" />
        </mxCell>
        <mxCell id="SF39tjZxRLqpiit2FNkD-2" value="create_at : Date" style="text;strokeColor=none;fillColor=none;align=left;verticalAlign=top;spacingLeft=4;spacingRight=4;overflow=hidden;rotatable=0;points=[[0,0.5],[1,0.5]];portConstraint=eastwest;whiteSpace=wrap;html=1;" parent="gLgQugJnE0icH2_p7Kl2-42" vertex="1">
          <mxGeometry y="176" width="140" height="26" as="geometry" />
        </mxCell>
        <mxCell id="gLgQugJnE0icH2_p7Kl2-89" value="Service" style="swimlane;fontStyle=0;childLayout=stackLayout;horizontal=1;startSize=30;horizontalStack=0;resizeParent=1;resizeParentMax=0;resizeLast=0;collapsible=1;marginBottom=0;whiteSpace=wrap;html=1;movable=1;resizable=1;rotatable=1;deletable=1;editable=1;locked=0;connectable=1;" parent="1" vertex="1">
          <mxGeometry x="670" y="280" width="140" height="116" as="geometry" />
        </mxCell>
        <mxCell id="gLgQugJnE0icH2_p7Kl2-90" value="ID : string" style="text;strokeColor=none;fillColor=none;align=left;verticalAlign=middle;spacingLeft=4;spacingRight=4;overflow=hidden;points=[[0,0.5],[1,0.5]];portConstraint=eastwest;rotatable=0;whiteSpace=wrap;html=1;" parent="gLgQugJnE0icH2_p7Kl2-89" vertex="1">
          <mxGeometry y="30" width="140" height="30" as="geometry" />
        </mxCell>
        <mxCell id="gLgQugJnE0icH2_p7Kl2-91" value="name : string" style="text;strokeColor=none;fillColor=none;align=left;verticalAlign=middle;spacingLeft=4;spacingRight=4;overflow=hidden;points=[[0,0.5],[1,0.5]];portConstraint=eastwest;rotatable=0;whiteSpace=wrap;html=1;" parent="gLgQugJnE0icH2_p7Kl2-89" vertex="1">
          <mxGeometry y="60" width="140" height="30" as="geometry" />
        </mxCell>
        <mxCell id="gLgQugJnE0icH2_p7Kl2-92" value="Logo : svg" style="text;strokeColor=none;fillColor=none;align=left;verticalAlign=top;spacingLeft=4;spacingRight=4;overflow=hidden;rotatable=0;points=[[0,0.5],[1,0.5]];portConstraint=eastwest;whiteSpace=wrap;html=1;" parent="gLgQugJnE0icH2_p7Kl2-89" vertex="1">
          <mxGeometry y="90" width="140" height="26" as="geometry" />
        </mxCell>
        <mxCell id="_z6DNUqXvnj6gCAz3mE7-1" value="Trip" style="swimlane;fontStyle=0;childLayout=stackLayout;horizontal=1;startSize=30;horizontalStack=0;resizeParent=1;resizeParentMax=0;resizeLast=0;collapsible=1;marginBottom=0;whiteSpace=wrap;html=1;movable=1;resizable=1;rotatable=1;deletable=1;editable=1;locked=0;connectable=1;" parent="1" vertex="1">
          <mxGeometry x="-470" y="10" width="290" height="210" as="geometry" />
        </mxCell>
        <mxCell id="_z6DNUqXvnj6gCAz3mE7-2" value="ID : ObjectID" style="text;strokeColor=none;fillColor=none;align=left;verticalAlign=middle;spacingLeft=4;spacingRight=4;overflow=hidden;points=[[0,0.5],[1,0.5]];portConstraint=eastwest;rotatable=0;whiteSpace=wrap;html=1;" parent="_z6DNUqXvnj6gCAz3mE7-1" vertex="1">
          <mxGeometry y="30" width="290" height="30" as="geometry" />
        </mxCell>
        <mxCell id="_z6DNUqXvnj6gCAz3mE7-3" value="user : ID user" style="text;strokeColor=none;fillColor=none;align=left;verticalAlign=middle;spacingLeft=4;spacingRight=4;overflow=hidden;points=[[0,0.5],[1,0.5]];portConstraint=eastwest;rotatable=0;whiteSpace=wrap;html=1;" parent="_z6DNUqXvnj6gCAz3mE7-1" vertex="1">
          <mxGeometry y="60" width="290" height="30" as="geometry" />
        </mxCell>
        <mxCell id="_z6DNUqXvnj6gCAz3mE7-4" value="distance : number" style="text;strokeColor=none;fillColor=none;align=left;verticalAlign=middle;spacingLeft=4;spacingRight=4;overflow=hidden;points=[[0,0.5],[1,0.5]];portConstraint=eastwest;rotatable=0;whiteSpace=wrap;html=1;" parent="_z6DNUqXvnj6gCAz3mE7-1" vertex="1">
          <mxGeometry y="90" width="290" height="30" as="geometry" />
        </mxCell>
        <mxCell id="d-V_azp6iLNb5Pd6ZN76-1" value="duration : number" style="text;strokeColor=none;fillColor=none;align=left;verticalAlign=middle;spacingLeft=4;spacingRight=4;overflow=hidden;points=[[0,0.5],[1,0.5]];portConstraint=eastwest;rotatable=0;whiteSpace=wrap;html=1;" parent="_z6DNUqXvnj6gCAz3mE7-1" vertex="1">
          <mxGeometry y="120" width="290" height="30" as="geometry" />
        </mxCell>
        <mxCell id="_z6DNUqXvnj6gCAz3mE7-21" value="date_visited (first day) : string" style="text;strokeColor=none;fillColor=none;align=left;verticalAlign=middle;spacingLeft=4;spacingRight=4;overflow=hidden;points=[[0,0.5],[1,0.5]];portConstraint=eastwest;rotatable=0;whiteSpace=wrap;html=1;" parent="_z6DNUqXvnj6gCAz3mE7-1" vertex="1">
          <mxGeometry y="150" width="290" height="30" as="geometry" />
        </mxCell>
        <mxCell id="_z6DNUqXvnj6gCAz3mE7-20" value="date_add : string" style="text;strokeColor=none;fillColor=none;align=left;verticalAlign=middle;spacingLeft=4;spacingRight=4;overflow=hidden;points=[[0,0.5],[1,0.5]];portConstraint=eastwest;rotatable=0;whiteSpace=wrap;html=1;" parent="_z6DNUqXvnj6gCAz3mE7-1" vertex="1">
          <mxGeometry y="180" width="290" height="30" as="geometry" />
        </mxCell>
        <mxCell id="_z6DNUqXvnj6gCAz3mE7-10" value="DayTrip" style="swimlane;fontStyle=0;childLayout=stackLayout;horizontal=1;startSize=30;horizontalStack=0;resizeParent=1;resizeParentMax=0;resizeLast=0;collapsible=1;marginBottom=0;whiteSpace=wrap;html=1;movable=1;resizable=1;rotatable=1;deletable=1;editable=1;locked=0;connectable=1;" parent="1" vertex="1">
          <mxGeometry x="-700" y="10" width="140" height="180" as="geometry" />
        </mxCell>
        <mxCell id="_z6DNUqXvnj6gCAz3mE7-11" value="ID : ObjectID" style="text;strokeColor=none;fillColor=none;align=left;verticalAlign=middle;spacingLeft=4;spacingRight=4;overflow=hidden;points=[[0,0.5],[1,0.5]];portConstraint=eastwest;rotatable=0;whiteSpace=wrap;html=1;" parent="_z6DNUqXvnj6gCAz3mE7-10" vertex="1">
          <mxGeometry y="30" width="140" height="30" as="geometry" />
        </mxCell>
        <mxCell id="dwiPANAmoAHTWbCAyr36-14" value="date : number" style="text;strokeColor=none;fillColor=none;align=left;verticalAlign=middle;spacingLeft=4;spacingRight=4;overflow=hidden;points=[[0,0.5],[1,0.5]];portConstraint=eastwest;rotatable=0;whiteSpace=wrap;html=1;" parent="_z6DNUqXvnj6gCAz3mE7-10" vertex="1">
          <mxGeometry y="60" width="140" height="30" as="geometry" />
        </mxCell>
        <mxCell id="_z6DNUqXvnj6gCAz3mE7-12" value="user: user_id" style="text;strokeColor=none;fillColor=none;align=left;verticalAlign=middle;spacingLeft=4;spacingRight=4;overflow=hidden;points=[[0,0.5],[1,0.5]];portConstraint=eastwest;rotatable=0;whiteSpace=wrap;html=1;" parent="_z6DNUqXvnj6gCAz3mE7-10" vertex="1">
          <mxGeometry y="90" width="140" height="30" as="geometry" />
        </mxCell>
        <mxCell id="dwiPANAmoAHTWbCAyr36-9" value="trip: trip_id" style="text;strokeColor=none;fillColor=none;align=left;verticalAlign=middle;spacingLeft=4;spacingRight=4;overflow=hidden;points=[[0,0.5],[1,0.5]];portConstraint=eastwest;rotatable=0;whiteSpace=wrap;html=1;" parent="_z6DNUqXvnj6gCAz3mE7-10" vertex="1">
          <mxGeometry y="120" width="140" height="30" as="geometry" />
        </mxCell>
        <mxCell id="dwiPANAmoAHTWbCAyr36-7" value="index : number" style="text;strokeColor=none;fillColor=none;align=left;verticalAlign=middle;spacingLeft=4;spacingRight=4;overflow=hidden;points=[[0,0.5],[1,0.5]];portConstraint=eastwest;rotatable=0;whiteSpace=wrap;html=1;" parent="_z6DNUqXvnj6gCAz3mE7-10" vertex="1">
          <mxGeometry y="150" width="140" height="30" as="geometry" />
        </mxCell>
        <mxCell id="eKAhwOoOdaK4VgPTAxOq-3" value="&lt;b&gt;Restaurant&lt;/b&gt;" style="text;html=1;align=center;verticalAlign=middle;whiteSpace=wrap;rounded=0;" parent="1" vertex="1">
          <mxGeometry x="433" y="640" width="70" height="30" as="geometry" />
        </mxCell>
        <mxCell id="eKAhwOoOdaK4VgPTAxOq-4" value="{&lt;div&gt;&lt;span style=&quot;white-space: pre;&quot;&gt;&#x9;&lt;/span&gt;price : Array&amp;lt;number&amp;gt;&lt;br&gt;&lt;div&gt;&lt;span style=&quot;white-space: pre;&quot;&gt;&#x9;&lt;/span&gt;diner: string&lt;br&gt;&lt;/div&gt;&lt;div&gt;&lt;span style=&quot;white-space: pre;&quot;&gt;&#x9;&lt;/span&gt;cook: string&lt;br&gt;&lt;/div&gt;&lt;div&gt;&lt;span style=&quot;white-space: pre;&quot;&gt;&#x9;&lt;/span&gt;fonctionnality: string&lt;span style=&quot;background-color: initial;&quot;&gt;&amp;nbsp;&lt;/span&gt;&lt;/div&gt;&lt;div&gt;}&lt;/div&gt;&lt;/div&gt;" style="text;html=1;align=left;verticalAlign=middle;whiteSpace=wrap;rounded=0;" parent="1" vertex="1">
          <mxGeometry x="438" y="670" width="155" height="90" as="geometry" />
        </mxCell>
        <mxCell id="eKAhwOoOdaK4VgPTAxOq-5" value="&lt;b&gt;Hôtel&lt;/b&gt;" style="text;html=1;align=center;verticalAlign=middle;whiteSpace=wrap;rounded=0;" parent="1" vertex="1">
          <mxGeometry x="603" y="640" width="70" height="30" as="geometry" />
        </mxCell>
        <mxCell id="eKAhwOoOdaK4VgPTAxOq-6" value="{&lt;div&gt;&lt;span style=&quot;white-space: pre;&quot;&gt;&#x9;&lt;/span&gt;Equipement : Array&amp;lt;string&amp;gt;&lt;br&gt;&lt;div&gt;&lt;span style=&quot;white-space: pre;&quot;&gt;&#x9;&lt;/span&gt;Accessibility : Array&amp;lt;string&amp;gt;&lt;br&gt;&lt;/div&gt;&lt;div&gt;&lt;span style=&quot;white-space: pre;&quot;&gt;&#x9;&lt;/span&gt;Services : Array&amp;lt;string&amp;gt;&lt;/div&gt;&lt;div&gt;}&lt;/div&gt;&lt;/div&gt;" style="text;html=1;align=left;verticalAlign=middle;whiteSpace=wrap;rounded=0;" parent="1" vertex="1">
          <mxGeometry x="608" y="670" width="185" height="90" as="geometry" />
        </mxCell>
        <mxCell id="eKAhwOoOdaK4VgPTAxOq-7" value="&lt;b&gt;Activity&lt;/b&gt;" style="text;html=1;align=center;verticalAlign=middle;whiteSpace=wrap;rounded=0;" parent="1" vertex="1">
          <mxGeometry x="233" y="640" width="70" height="30" as="geometry" />
        </mxCell>
        <mxCell id="eKAhwOoOdaK4VgPTAxOq-8" value="{&lt;div&gt;&lt;span style=&quot;white-space: pre;&quot;&gt;&#x9;&lt;/span&gt;schedules: Array&amp;lt;string&amp;gt;&lt;br&gt;&lt;div&gt;&lt;span style=&quot;white-space: pre;&quot;&gt;&#x9;&lt;/span&gt;duration&amp;nbsp;:number&lt;/div&gt;&lt;div&gt;}&lt;/div&gt;&lt;/div&gt;" style="text;html=1;align=left;verticalAlign=middle;whiteSpace=wrap;rounded=0;" parent="1" vertex="1">
          <mxGeometry x="238" y="670" width="185" height="90" as="geometry" />
        </mxCell>
        <mxCell id="eKAhwOoOdaK4VgPTAxOq-9" value="" style="shape=curlyBracket;whiteSpace=wrap;html=1;rounded=1;flipH=1;labelPosition=right;verticalLabelPosition=middle;align=left;verticalAlign=middle;rotation=-90;" parent="1" vertex="1">
          <mxGeometry x="503.83" y="350.11" width="20" height="581.73" as="geometry" />
        </mxCell>
        <mxCell id="gLgQugJnE0icH2_p7Kl2-18" value="Comment" style="swimlane;fontStyle=0;childLayout=stackLayout;horizontal=1;startSize=30;horizontalStack=0;resizeParent=1;resizeParentMax=0;resizeLast=0;collapsible=1;marginBottom=0;whiteSpace=wrap;html=1;movable=1;resizable=1;rotatable=1;deletable=1;editable=1;locked=0;connectable=1;" parent="1" vertex="1">
          <mxGeometry x="210" y="60" width="140" height="280" as="geometry" />
        </mxCell>
        <mxCell id="gLgQugJnE0icH2_p7Kl2-19" value="ID : ObjectID" style="text;strokeColor=none;fillColor=none;align=left;verticalAlign=middle;spacingLeft=4;spacingRight=4;overflow=hidden;points=[[0,0.5],[1,0.5]];portConstraint=eastwest;rotatable=0;whiteSpace=wrap;html=1;" parent="gLgQugJnE0icH2_p7Kl2-18" vertex="1">
          <mxGeometry y="30" width="140" height="30" as="geometry" />
        </mxCell>
        <mxCell id="gLgQugJnE0icH2_p7Kl2-20" value="user_id : ID user" style="text;strokeColor=none;fillColor=none;align=left;verticalAlign=middle;spacingLeft=4;spacingRight=4;overflow=hidden;points=[[0,0.5],[1,0.5]];portConstraint=eastwest;rotatable=0;whiteSpace=wrap;html=1;" parent="gLgQugJnE0icH2_p7Kl2-18" vertex="1">
          <mxGeometry y="60" width="140" height="30" as="geometry" />
        </mxCell>
        <mxCell id="gLgQugJnE0icH2_p7Kl2-26" value="place_id : ID place" style="text;strokeColor=none;fillColor=none;align=left;verticalAlign=top;spacingLeft=4;spacingRight=4;overflow=hidden;rotatable=0;points=[[0,0.5],[1,0.5]];portConstraint=eastwest;whiteSpace=wrap;html=1;" parent="gLgQugJnE0icH2_p7Kl2-18" vertex="1">
          <mxGeometry y="90" width="140" height="26" as="geometry" />
        </mxCell>
        <mxCell id="gLgQugJnE0icH2_p7Kl2-21" value="comment : string" style="text;strokeColor=none;fillColor=none;align=left;verticalAlign=middle;spacingLeft=4;spacingRight=4;overflow=hidden;points=[[0,0.5],[1,0.5]];portConstraint=eastwest;rotatable=0;whiteSpace=wrap;html=1;" parent="gLgQugJnE0icH2_p7Kl2-18" vertex="1">
          <mxGeometry y="116" width="140" height="30" as="geometry" />
        </mxCell>
        <mxCell id="gLgQugJnE0icH2_p7Kl2-22" value="like : number" style="text;strokeColor=none;fillColor=none;align=left;verticalAlign=top;spacingLeft=4;spacingRight=4;overflow=hidden;rotatable=0;points=[[0,0.5],[1,0.5]];portConstraint=eastwest;whiteSpace=wrap;html=1;" parent="gLgQugJnE0icH2_p7Kl2-18" vertex="1">
          <mxGeometry y="146" width="140" height="26" as="geometry" />
        </mxCell>
        <mxCell id="gLgQugJnE0icH2_p7Kl2-23" value="note : number" style="text;strokeColor=none;fillColor=none;align=left;verticalAlign=top;spacingLeft=4;spacingRight=4;overflow=hidden;rotatable=0;points=[[0,0.5],[1,0.5]];portConstraint=eastwest;whiteSpace=wrap;html=1;" parent="gLgQugJnE0icH2_p7Kl2-18" vertex="1">
          <mxGeometry y="172" width="140" height="26" as="geometry" />
        </mxCell>
        <mxCell id="gLgQugJnE0icH2_p7Kl2-25" value="dateVisited : string" style="text;strokeColor=none;fillColor=none;align=left;verticalAlign=top;spacingLeft=4;spacingRight=4;overflow=hidden;rotatable=0;points=[[0,0.5],[1,0.5]];portConstraint=eastwest;whiteSpace=wrap;html=1;" parent="gLgQugJnE0icH2_p7Kl2-18" vertex="1">
          <mxGeometry y="198" width="140" height="26" as="geometry" />
        </mxCell>
        <mxCell id="gLgQugJnE0icH2_p7Kl2-24" value="create_at: Date" style="text;strokeColor=none;fillColor=none;align=left;verticalAlign=top;spacingLeft=4;spacingRight=4;overflow=hidden;rotatable=0;points=[[0,0.5],[1,0.5]];portConstraint=eastwest;whiteSpace=wrap;html=1;" parent="gLgQugJnE0icH2_p7Kl2-18" vertex="1">
          <mxGeometry y="224" width="140" height="26" as="geometry" />
        </mxCell>
        <mxCell id="SF39tjZxRLqpiit2FNkD-1" value="update_at : Date" style="text;strokeColor=none;fillColor=none;align=left;verticalAlign=middle;spacingLeft=4;spacingRight=4;overflow=hidden;points=[[0,0.5],[1,0.5]];portConstraint=eastwest;rotatable=0;whiteSpace=wrap;html=1;" parent="gLgQugJnE0icH2_p7Kl2-18" vertex="1">
          <mxGeometry y="250" width="140" height="30" as="geometry" />
        </mxCell>
        <mxCell id="4FOrvcWQ67L508ASZ2I5-4" style="edgeStyle=orthogonalEdgeStyle;rounded=0;orthogonalLoop=1;jettySize=auto;html=1;entryX=-0.003;entryY=0.856;entryDx=0;entryDy=0;entryPerimeter=0;" parent="1" source="gLgQugJnE0icH2_p7Kl2-26" target="gLgQugJnE0icH2_p7Kl2-33" edge="1">
          <mxGeometry relative="1" as="geometry" />
        </mxCell>
        <mxCell id="4FOrvcWQ67L508ASZ2I5-5" style="edgeStyle=orthogonalEdgeStyle;rounded=0;orthogonalLoop=1;jettySize=auto;html=1;entryX=0.99;entryY=0.747;entryDx=0;entryDy=0;entryPerimeter=0;" parent="1" source="gLgQugJnE0icH2_p7Kl2-45" target="gLgQugJnE0icH2_p7Kl2-2" edge="1">
          <mxGeometry relative="1" as="geometry">
            <Array as="points">
              <mxPoint x="170" y="495" />
              <mxPoint x="170" y="62" />
            </Array>
          </mxGeometry>
        </mxCell>
        <mxCell id="4FOrvcWQ67L508ASZ2I5-6" style="edgeStyle=orthogonalEdgeStyle;rounded=0;orthogonalLoop=1;jettySize=auto;html=1;" parent="1" source="gLgQugJnE0icH2_p7Kl2-44" target="gLgQugJnE0icH2_p7Kl2-33" edge="1">
          <mxGeometry relative="1" as="geometry">
            <Array as="points">
              <mxPoint x="410" y="460" />
              <mxPoint x="410" y="61" />
            </Array>
          </mxGeometry>
        </mxCell>
        <mxCell id="4FOrvcWQ67L508ASZ2I5-7" style="edgeStyle=orthogonalEdgeStyle;rounded=0;orthogonalLoop=1;jettySize=auto;html=1;" parent="1" source="gLgQugJnE0icH2_p7Kl2-80" target="gLgQugJnE0icH2_p7Kl2-33" edge="1">
          <mxGeometry relative="1" as="geometry">
            <Array as="points">
              <mxPoint x="80" y="350" />
              <mxPoint x="420" y="350" />
              <mxPoint x="420" y="70" />
            </Array>
          </mxGeometry>
        </mxCell>
        <mxCell id="4FOrvcWQ67L508ASZ2I5-8" style="edgeStyle=orthogonalEdgeStyle;rounded=0;orthogonalLoop=1;jettySize=auto;html=1;entryX=0;entryY=0.5;entryDx=0;entryDy=0;" parent="1" source="_z6DNUqXvnj6gCAz3mE7-3" target="gLgQugJnE0icH2_p7Kl2-2" edge="1">
          <mxGeometry relative="1" as="geometry" />
        </mxCell>
        <mxCell id="dwiPANAmoAHTWbCAyr36-2" style="edgeStyle=orthogonalEdgeStyle;rounded=0;orthogonalLoop=1;jettySize=auto;html=1;entryX=1.025;entryY=0.178;entryDx=0;entryDy=0;entryPerimeter=0;" parent="1" source="dwiPANAmoAHTWbCAyr36-1" target="gLgQugJnE0icH2_p7Kl2-2" edge="1">
          <mxGeometry relative="1" as="geometry">
            <Array as="points">
              <mxPoint x="410" y="85" />
              <mxPoint x="410" y="10" />
              <mxPoint x="170" y="10" />
              <mxPoint x="170" y="45" />
            </Array>
          </mxGeometry>
        </mxCell>
        <mxCell id="dwiPANAmoAHTWbCAyr36-3" value="&lt;b&gt;enum &lt;/b&gt;:&lt;div&gt;activity&lt;/div&gt;&lt;div&gt;restaurant&lt;/div&gt;&lt;div&gt;hotel&lt;/div&gt;" style="rounded=0;whiteSpace=wrap;html=1;fillColor=#ffff88;strokeColor=#36393d;fontColor=#000000;" parent="1" vertex="1">
          <mxGeometry x="673" y="109" width="120" height="60" as="geometry" />
        </mxCell>
        <mxCell id="dwiPANAmoAHTWbCAyr36-4" style="edgeStyle=orthogonalEdgeStyle;rounded=0;orthogonalLoop=1;jettySize=auto;html=1;" parent="1" source="gLgQugJnE0icH2_p7Kl2-61" target="dwiPANAmoAHTWbCAyr36-3" edge="1">
          <mxGeometry relative="1" as="geometry" />
        </mxCell>
        <mxCell id="dwiPANAmoAHTWbCAyr36-6" style="edgeStyle=orthogonalEdgeStyle;rounded=0;orthogonalLoop=1;jettySize=auto;html=1;" parent="1" source="dwiPANAmoAHTWbCAyr36-5" target="4FOrvcWQ67L508ASZ2I5-2" edge="1">
          <mxGeometry relative="1" as="geometry" />
        </mxCell>
        <mxCell id="dwiPANAmoAHTWbCAyr36-5" value="&lt;b&gt;enum &lt;/b&gt;:&lt;div&gt;professional&lt;/div&gt;&lt;div&gt;user&lt;/div&gt;&lt;div&gt;admin&lt;br&gt;&lt;div&gt;&lt;br&gt;&lt;/div&gt;&lt;/div&gt;" style="rounded=0;whiteSpace=wrap;html=1;fillColor=#ffff88;strokeColor=#36393d;fontColor=#000000;" parent="1" vertex="1">
          <mxGeometry x="-150" y="97" width="120" height="72" as="geometry" />
        </mxCell>
        <mxCell id="dwiPANAmoAHTWbCAyr36-10" value="Content" style="swimlane;fontStyle=0;childLayout=stackLayout;horizontal=1;startSize=30;horizontalStack=0;resizeParent=1;resizeParentMax=0;resizeLast=0;collapsible=1;marginBottom=0;whiteSpace=wrap;html=1;" parent="1" vertex="1">
          <mxGeometry x="-900" y="10" width="140" height="270" as="geometry" />
        </mxCell>
        <mxCell id="dwiPANAmoAHTWbCAyr36-11" value="ID : ObjectID" style="text;strokeColor=none;fillColor=none;align=left;verticalAlign=middle;spacingLeft=4;spacingRight=4;overflow=hidden;points=[[0,0.5],[1,0.5]];portConstraint=eastwest;rotatable=0;whiteSpace=wrap;html=1;" parent="dwiPANAmoAHTWbCAyr36-10" vertex="1">
          <mxGeometry y="30" width="140" height="30" as="geometry" />
        </mxCell>
        <mxCell id="dwiPANAmoAHTWbCAyr36-17" value="type : string" style="text;strokeColor=none;fillColor=none;align=left;verticalAlign=middle;spacingLeft=4;spacingRight=4;overflow=hidden;points=[[0,0.5],[1,0.5]];portConstraint=eastwest;rotatable=0;whiteSpace=wrap;html=1;" parent="dwiPANAmoAHTWbCAyr36-10" vertex="1">
          <mxGeometry y="60" width="140" height="30" as="geometry" />
        </mxCell>
        <mxCell id="dwiPANAmoAHTWbCAyr36-21" value="DayTrip : DayTrip_id" style="text;strokeColor=none;fillColor=none;align=left;verticalAlign=middle;spacingLeft=4;spacingRight=4;overflow=hidden;points=[[0,0.5],[1,0.5]];portConstraint=eastwest;rotatable=0;whiteSpace=wrap;html=1;" parent="dwiPANAmoAHTWbCAyr36-10" vertex="1">
          <mxGeometry y="90" width="140" height="30" as="geometry" />
        </mxCell>
        <mxCell id="dwiPANAmoAHTWbCAyr36-12" value="time : number" style="text;strokeColor=none;fillColor=none;align=left;verticalAlign=middle;spacingLeft=4;spacingRight=4;overflow=hidden;points=[[0,0.5],[1,0.5]];portConstraint=eastwest;rotatable=0;whiteSpace=wrap;html=1;" parent="dwiPANAmoAHTWbCAyr36-10" vertex="1">
          <mxGeometry y="120" width="140" height="30" as="geometry" />
        </mxCell>
        <mxCell id="dwiPANAmoAHTWbCAyr36-13" value="duration : number" style="text;strokeColor=none;fillColor=none;align=left;verticalAlign=middle;spacingLeft=4;spacingRight=4;overflow=hidden;points=[[0,0.5],[1,0.5]];portConstraint=eastwest;rotatable=0;whiteSpace=wrap;html=1;" parent="dwiPANAmoAHTWbCAyr36-10" vertex="1">
          <mxGeometry y="150" width="140" height="30" as="geometry" />
        </mxCell>
        <mxCell id="dwiPANAmoAHTWbCAyr36-15" value="place : place_id" style="text;strokeColor=none;fillColor=none;align=left;verticalAlign=middle;spacingLeft=4;spacingRight=4;overflow=hidden;points=[[0,0.5],[1,0.5]];portConstraint=eastwest;rotatable=0;whiteSpace=wrap;html=1;" parent="dwiPANAmoAHTWbCAyr36-10" vertex="1">
          <mxGeometry y="180" width="140" height="30" as="geometry" />
        </mxCell>
        <mxCell id="dwiPANAmoAHTWbCAyr36-20" value="distance : number" style="text;strokeColor=none;fillColor=none;align=left;verticalAlign=middle;spacingLeft=4;spacingRight=4;overflow=hidden;points=[[0,0.5],[1,0.5]];portConstraint=eastwest;rotatable=0;whiteSpace=wrap;html=1;" parent="dwiPANAmoAHTWbCAyr36-10" vertex="1">
          <mxGeometry y="210" width="140" height="30" as="geometry" />
        </mxCell>
        <mxCell id="dwiPANAmoAHTWbCAyr36-16" value="index : number" style="text;strokeColor=none;fillColor=none;align=left;verticalAlign=middle;spacingLeft=4;spacingRight=4;overflow=hidden;points=[[0,0.5],[1,0.5]];portConstraint=eastwest;rotatable=0;whiteSpace=wrap;html=1;" parent="dwiPANAmoAHTWbCAyr36-10" vertex="1">
          <mxGeometry y="240" width="140" height="30" as="geometry" />
        </mxCell>
        <mxCell id="dwiPANAmoAHTWbCAyr36-19" style="edgeStyle=orthogonalEdgeStyle;rounded=0;orthogonalLoop=1;jettySize=auto;html=1;" parent="1" source="dwiPANAmoAHTWbCAyr36-18" target="dwiPANAmoAHTWbCAyr36-17" edge="1">
          <mxGeometry relative="1" as="geometry" />
        </mxCell>
        <mxCell id="dwiPANAmoAHTWbCAyr36-18" value="&lt;b&gt;enum &lt;/b&gt;:&lt;div&gt;place&lt;/div&gt;&lt;div&gt;ride&lt;/div&gt;&lt;div&gt;undefined_restaurant&lt;/div&gt;&lt;div&gt;undefined_hotel&lt;/div&gt;&lt;div&gt;undefined_activity&lt;br&gt;&lt;div&gt;&lt;br&gt;&lt;/div&gt;&lt;/div&gt;" style="rounded=0;whiteSpace=wrap;html=1;fillColor=#ffff88;strokeColor=#36393d;fontColor=#000000;" parent="1" vertex="1">
          <mxGeometry x="-1080" y="60" width="130" height="110" as="geometry" />
        </mxCell>
        <mxCell id="dwiPANAmoAHTWbCAyr36-22" style="edgeStyle=orthogonalEdgeStyle;rounded=0;orthogonalLoop=1;jettySize=auto;html=1;entryX=0;entryY=0.667;entryDx=0;entryDy=0;entryPerimeter=0;" parent="1" source="dwiPANAmoAHTWbCAyr36-21" target="_z6DNUqXvnj6gCAz3mE7-11" edge="1">
          <mxGeometry relative="1" as="geometry" />
        </mxCell>
        <mxCell id="dwiPANAmoAHTWbCAyr36-23" style="edgeStyle=orthogonalEdgeStyle;rounded=0;orthogonalLoop=1;jettySize=auto;html=1;entryX=0;entryY=0.5;entryDx=0;entryDy=0;" parent="1" source="dwiPANAmoAHTWbCAyr36-9" target="_z6DNUqXvnj6gCAz3mE7-2" edge="1">
          <mxGeometry relative="1" as="geometry" />
        </mxCell>
        <mxCell id="dwiPANAmoAHTWbCAyr36-24" style="edgeStyle=orthogonalEdgeStyle;rounded=0;orthogonalLoop=1;jettySize=auto;html=1;entryX=0.001;entryY=0.35;entryDx=0;entryDy=0;entryPerimeter=0;" parent="1" source="_z6DNUqXvnj6gCAz3mE7-12" target="gLgQugJnE0icH2_p7Kl2-2" edge="1">
          <mxGeometry relative="1" as="geometry">
            <mxPoint x="10" y="50" as="targetPoint" />
            <Array as="points">
              <mxPoint x="-540" y="115" />
              <mxPoint x="-540" />
              <mxPoint x="-30" />
              <mxPoint x="-30" y="50" />
              <mxPoint x="10" y="50" />
            </Array>
          </mxGeometry>
        </mxCell>
        <mxCell id="dwiPANAmoAHTWbCAyr36-25" style="edgeStyle=orthogonalEdgeStyle;rounded=0;orthogonalLoop=1;jettySize=auto;html=1;entryX=0;entryY=0.5;entryDx=0;entryDy=0;" parent="1" source="dwiPANAmoAHTWbCAyr36-15" target="gLgQugJnE0icH2_p7Kl2-33" edge="1">
          <mxGeometry relative="1" as="geometry">
            <Array as="points">
              <mxPoint x="-740" y="205" />
              <mxPoint x="-740" y="-20" />
              <mxPoint x="420" y="-20" />
              <mxPoint x="420" y="55" />
            </Array>
          </mxGeometry>
        </mxCell>
        <mxCell id="scJsawBfPXo7EQTzjnEw-1" value="Favoris" style="swimlane;fontStyle=0;childLayout=stackLayout;horizontal=1;startSize=30;horizontalStack=0;resizeParent=1;resizeParentMax=0;resizeLast=0;collapsible=1;marginBottom=0;whiteSpace=wrap;html=1;" parent="1" vertex="1">
          <mxGeometry x="260.5" y="-540" width="140" height="180" as="geometry" />
        </mxCell>
        <mxCell id="scJsawBfPXo7EQTzjnEw-2" value="_id : ObjectID" style="text;strokeColor=none;fillColor=none;align=left;verticalAlign=middle;spacingLeft=4;spacingRight=4;overflow=hidden;points=[[0,0.5],[1,0.5]];portConstraint=eastwest;rotatable=0;whiteSpace=wrap;html=1;" parent="scJsawBfPXo7EQTzjnEw-1" vertex="1">
          <mxGeometry y="30" width="140" height="30" as="geometry" />
        </mxCell>
        <mxCell id="scJsawBfPXo7EQTzjnEw-3" value="user: user_ID" style="text;strokeColor=none;fillColor=none;align=left;verticalAlign=middle;spacingLeft=4;spacingRight=4;overflow=hidden;points=[[0,0.5],[1,0.5]];portConstraint=eastwest;rotatable=0;whiteSpace=wrap;html=1;" parent="scJsawBfPXo7EQTzjnEw-1" vertex="1">
          <mxGeometry y="60" width="140" height="30" as="geometry" />
        </mxCell>
        <mxCell id="scJsawBfPXo7EQTzjnEw-4" value="Place: place_Id" style="text;strokeColor=none;fillColor=none;align=left;verticalAlign=middle;spacingLeft=4;spacingRight=4;overflow=hidden;points=[[0,0.5],[1,0.5]];portConstraint=eastwest;rotatable=0;whiteSpace=wrap;html=1;" parent="scJsawBfPXo7EQTzjnEw-1" vertex="1">
          <mxGeometry y="90" width="140" height="30" as="geometry" />
        </mxCell>
        <mxCell id="scJsawBfPXo7EQTzjnEw-5" value="Folder: ObjectID" style="text;strokeColor=none;fillColor=none;align=left;verticalAlign=middle;spacingLeft=4;spacingRight=4;overflow=hidden;points=[[0,0.5],[1,0.5]];portConstraint=eastwest;rotatable=0;whiteSpace=wrap;html=1;" parent="scJsawBfPXo7EQTzjnEw-1" vertex="1">
          <mxGeometry y="120" width="140" height="30" as="geometry" />
        </mxCell>
        <mxCell id="scJsawBfPXo7EQTzjnEw-6" value="visited:Boolean" style="text;strokeColor=none;fillColor=none;align=left;verticalAlign=middle;spacingLeft=4;spacingRight=4;overflow=hidden;points=[[0,0.5],[1,0.5]];portConstraint=eastwest;rotatable=0;whiteSpace=wrap;html=1;" parent="scJsawBfPXo7EQTzjnEw-1" vertex="1">
          <mxGeometry y="150" width="140" height="30" as="geometry" />
        </mxCell>
        <mxCell id="scJsawBfPXo7EQTzjnEw-7" value="Folder" style="swimlane;fontStyle=0;childLayout=stackLayout;horizontal=1;startSize=30;horizontalStack=0;resizeParent=1;resizeParentMax=0;resizeLast=0;collapsible=1;marginBottom=0;whiteSpace=wrap;html=1;" parent="1" vertex="1">
          <mxGeometry x="250" y="-330" width="140" height="120" as="geometry" />
        </mxCell>
        <mxCell id="scJsawBfPXo7EQTzjnEw-8" value="_id : ObjectID" style="text;strokeColor=none;fillColor=none;align=left;verticalAlign=middle;spacingLeft=4;spacingRight=4;overflow=hidden;points=[[0,0.5],[1,0.5]];portConstraint=eastwest;rotatable=0;whiteSpace=wrap;html=1;" parent="scJsawBfPXo7EQTzjnEw-7" vertex="1">
          <mxGeometry y="30" width="140" height="30" as="geometry" />
        </mxCell>
        <mxCell id="scJsawBfPXo7EQTzjnEw-9" value="user: user_ID" style="text;strokeColor=none;fillColor=none;align=left;verticalAlign=middle;spacingLeft=4;spacingRight=4;overflow=hidden;points=[[0,0.5],[1,0.5]];portConstraint=eastwest;rotatable=0;whiteSpace=wrap;html=1;" parent="scJsawBfPXo7EQTzjnEw-7" vertex="1">
          <mxGeometry y="60" width="140" height="30" as="geometry" />
        </mxCell>
        <mxCell id="scJsawBfPXo7EQTzjnEw-11" value="name: string" style="text;strokeColor=none;fillColor=none;align=left;verticalAlign=middle;spacingLeft=4;spacingRight=4;overflow=hidden;points=[[0,0.5],[1,0.5]];portConstraint=eastwest;rotatable=0;whiteSpace=wrap;html=1;" parent="scJsawBfPXo7EQTzjnEw-7" vertex="1">
          <mxGeometry y="90" width="140" height="30" as="geometry" />
        </mxCell>
        <mxCell id="scJsawBfPXo7EQTzjnEw-13" style="edgeStyle=orthogonalEdgeStyle;rounded=0;orthogonalLoop=1;jettySize=auto;html=1;exitX=-0.022;exitY=0.571;exitDx=0;exitDy=0;exitPerimeter=0;" parent="1" source="scJsawBfPXo7EQTzjnEw-9" target="gLgQugJnE0icH2_p7Kl2-2" edge="1">
          <mxGeometry relative="1" as="geometry">
            <Array as="points">
              <mxPoint x="-20" y="-253" />
              <mxPoint x="-20" y="55" />
            </Array>
          </mxGeometry>
        </mxCell>
        <mxCell id="scJsawBfPXo7EQTzjnEw-14" style="edgeStyle=orthogonalEdgeStyle;rounded=0;orthogonalLoop=1;jettySize=auto;html=1;entryX=0.009;entryY=0.233;entryDx=0;entryDy=0;entryPerimeter=0;" parent="1" target="gLgQugJnE0icH2_p7Kl2-33" edge="1">
          <mxGeometry relative="1" as="geometry">
            <mxPoint x="390" y="-224.9743589743589" as="sourcePoint" />
          </mxGeometry>
        </mxCell>
        <mxCell id="scJsawBfPXo7EQTzjnEw-15" style="edgeStyle=orthogonalEdgeStyle;rounded=0;orthogonalLoop=1;jettySize=auto;html=1;entryX=0;entryY=0.5;entryDx=0;entryDy=0;exitX=-0.022;exitY=0.562;exitDx=0;exitDy=0;exitPerimeter=0;" parent="1" source="scJsawBfPXo7EQTzjnEw-8" edge="1">
          <mxGeometry relative="1" as="geometry">
            <Array as="points">
              <mxPoint x="247" y="-285" />
              <mxPoint x="-10" y="-285" />
              <mxPoint x="-10" y="-400" />
              <mxPoint x="260" y="-400" />
            </Array>
            <mxPoint x="220" y="-285" as="sourcePoint" />
            <mxPoint x="260.5" y="-420" as="targetPoint" />
          </mxGeometry>
        </mxCell>
        <mxCell id="scJsawBfPXo7EQTzjnEw-16" style="edgeStyle=orthogonalEdgeStyle;rounded=0;orthogonalLoop=1;jettySize=auto;html=1;entryX=0;entryY=0.5;entryDx=0;entryDy=0;" parent="1" source="scJsawBfPXo7EQTzjnEw-4" target="gLgQugJnE0icH2_p7Kl2-33" edge="1">
          <mxGeometry relative="1" as="geometry" />
        </mxCell>
        <mxCell id="SF39tjZxRLqpiit2FNkD-8" value="LikeComment" style="swimlane;fontStyle=0;childLayout=stackLayout;horizontal=1;startSize=26;fillColor=none;horizontalStack=0;resizeParent=1;resizeParentMax=0;resizeLast=0;collapsible=1;marginBottom=0;html=1;" parent="1" vertex="1">
          <mxGeometry x="190" y="-150" width="140" height="104" as="geometry" />
        </mxCell>
        <mxCell id="SF39tjZxRLqpiit2FNkD-9" value="ID: Object ID" style="text;strokeColor=none;fillColor=none;align=left;verticalAlign=top;spacingLeft=4;spacingRight=4;overflow=hidden;rotatable=0;points=[[0,0.5],[1,0.5]];portConstraint=eastwest;whiteSpace=wrap;html=1;" parent="SF39tjZxRLqpiit2FNkD-8" vertex="1">
          <mxGeometry y="26" width="140" height="26" as="geometry" />
        </mxCell>
        <mxCell id="SF39tjZxRLqpiit2FNkD-10" value="comment_id : ID" style="text;strokeColor=none;fillColor=none;align=left;verticalAlign=top;spacingLeft=4;spacingRight=4;overflow=hidden;rotatable=0;points=[[0,0.5],[1,0.5]];portConstraint=eastwest;whiteSpace=wrap;html=1;" parent="SF39tjZxRLqpiit2FNkD-8" vertex="1">
          <mxGeometry y="52" width="140" height="26" as="geometry" />
        </mxCell>
        <mxCell id="SF39tjZxRLqpiit2FNkD-11" value="user_id: ID" style="text;strokeColor=none;fillColor=none;align=left;verticalAlign=top;spacingLeft=4;spacingRight=4;overflow=hidden;rotatable=0;points=[[0,0.5],[1,0.5]];portConstraint=eastwest;whiteSpace=wrap;html=1;" parent="SF39tjZxRLqpiit2FNkD-8" vertex="1">
          <mxGeometry y="78" width="140" height="26" as="geometry" />
        </mxCell>
        <mxCell id="SF39tjZxRLqpiit2FNkD-12" style="edgeStyle=orthogonalEdgeStyle;rounded=0;orthogonalLoop=1;jettySize=auto;html=1;entryX=1;entryY=0.333;entryDx=0;entryDy=0;entryPerimeter=0;" parent="1" source="SF39tjZxRLqpiit2FNkD-11" target="gLgQugJnE0icH2_p7Kl2-2" edge="1">
          <mxGeometry relative="1" as="geometry" />
        </mxCell>
        <mxCell id="SF39tjZxRLqpiit2FNkD-13" style="edgeStyle=orthogonalEdgeStyle;rounded=0;orthogonalLoop=1;jettySize=auto;html=1;entryX=1;entryY=0.5;entryDx=0;entryDy=0;" parent="1" source="SF39tjZxRLqpiit2FNkD-10" target="gLgQugJnE0icH2_p7Kl2-19" edge="1">
          <mxGeometry relative="1" as="geometry" />
        </mxCell>
        <mxCell id="KQHd_aGsmPLkwVp1qi-2-1" value="PlannifSave" style="swimlane;fontStyle=0;childLayout=stackLayout;horizontal=1;startSize=30;horizontalStack=0;resizeParent=1;resizeParentMax=0;resizeLast=0;collapsible=1;marginBottom=0;whiteSpace=wrap;html=1;" vertex="1" parent="1">
          <mxGeometry x="-700" y="248" width="140" height="180" as="geometry" />
        </mxCell>
        <mxCell id="KQHd_aGsmPLkwVp1qi-2-2" value="ID: ObjectID" style="text;strokeColor=none;fillColor=none;align=left;verticalAlign=middle;spacingLeft=4;spacingRight=4;overflow=hidden;points=[[0,0.5],[1,0.5]];portConstraint=eastwest;rotatable=0;whiteSpace=wrap;html=1;" vertex="1" parent="KQHd_aGsmPLkwVp1qi-2-1">
          <mxGeometry y="30" width="140" height="30" as="geometry" />
        </mxCell>
        <mxCell id="KQHd_aGsmPLkwVp1qi-2-3" value="user: ID user" style="text;strokeColor=none;fillColor=none;align=left;verticalAlign=middle;spacingLeft=4;spacingRight=4;overflow=hidden;points=[[0,0.5],[1,0.5]];portConstraint=eastwest;rotatable=0;whiteSpace=wrap;html=1;" vertex="1" parent="KQHd_aGsmPLkwVp1qi-2-1">
          <mxGeometry y="60" width="140" height="30" as="geometry" />
        </mxCell>
        <mxCell id="KQHd_aGsmPLkwVp1qi-2-13" value="dateStart: Date" style="text;strokeColor=none;fillColor=none;align=left;verticalAlign=middle;spacingLeft=4;spacingRight=4;overflow=hidden;points=[[0,0.5],[1,0.5]];portConstraint=eastwest;rotatable=0;whiteSpace=wrap;html=1;" vertex="1" parent="KQHd_aGsmPLkwVp1qi-2-1">
          <mxGeometry y="90" width="140" height="30" as="geometry" />
        </mxCell>
        <mxCell id="KQHd_aGsmPLkwVp1qi-2-16" value="dateEnd: Date" style="text;strokeColor=none;fillColor=none;align=left;verticalAlign=middle;spacingLeft=4;spacingRight=4;overflow=hidden;points=[[0,0.5],[1,0.5]];portConstraint=eastwest;rotatable=0;whiteSpace=wrap;html=1;" vertex="1" parent="KQHd_aGsmPLkwVp1qi-2-1">
          <mxGeometry y="120" width="140" height="30" as="geometry" />
        </mxCell>
        <mxCell id="KQHd_aGsmPLkwVp1qi-2-17" value="adresseReturn : string" style="text;strokeColor=none;fillColor=none;align=left;verticalAlign=middle;spacingLeft=4;spacingRight=4;overflow=hidden;points=[[0,0.5],[1,0.5]];portConstraint=eastwest;rotatable=0;whiteSpace=wrap;html=1;" vertex="1" parent="KQHd_aGsmPLkwVp1qi-2-1">
          <mxGeometry y="150" width="140" height="30" as="geometry" />
        </mxCell>
        <mxCell id="KQHd_aGsmPLkwVp1qi-2-5" value="placePlannif" style="swimlane;fontStyle=0;childLayout=stackLayout;horizontal=1;startSize=30;horizontalStack=0;resizeParent=1;resizeParentMax=0;resizeLast=0;collapsible=1;marginBottom=0;whiteSpace=wrap;html=1;" vertex="1" parent="1">
          <mxGeometry x="-430" y="340" width="140" height="120" as="geometry" />
        </mxCell>
        <mxCell id="KQHd_aGsmPLkwVp1qi-2-6" value="ID: ObjectID" style="text;strokeColor=none;fillColor=none;align=left;verticalAlign=middle;spacingLeft=4;spacingRight=4;overflow=hidden;points=[[0,0.5],[1,0.5]];portConstraint=eastwest;rotatable=0;whiteSpace=wrap;html=1;" vertex="1" parent="KQHd_aGsmPLkwVp1qi-2-5">
          <mxGeometry y="30" width="140" height="30" as="geometry" />
        </mxCell>
        <mxCell id="KQHd_aGsmPLkwVp1qi-2-8" value="place: ID" style="text;strokeColor=none;fillColor=none;align=left;verticalAlign=middle;spacingLeft=4;spacingRight=4;overflow=hidden;points=[[0,0.5],[1,0.5]];portConstraint=eastwest;rotatable=0;whiteSpace=wrap;html=1;" vertex="1" parent="KQHd_aGsmPLkwVp1qi-2-5">
          <mxGeometry y="60" width="140" height="30" as="geometry" />
        </mxCell>
        <mxCell id="KQHd_aGsmPLkwVp1qi-2-9" value="plannifSave : ID" style="text;strokeColor=none;fillColor=none;align=left;verticalAlign=middle;spacingLeft=4;spacingRight=4;overflow=hidden;points=[[0,0.5],[1,0.5]];portConstraint=eastwest;rotatable=0;whiteSpace=wrap;html=1;" vertex="1" parent="KQHd_aGsmPLkwVp1qi-2-5">
          <mxGeometry y="90" width="140" height="30" as="geometry" />
        </mxCell>
        <mxCell id="KQHd_aGsmPLkwVp1qi-2-10" style="edgeStyle=orthogonalEdgeStyle;rounded=0;orthogonalLoop=1;jettySize=auto;html=1;" edge="1" parent="1" source="KQHd_aGsmPLkwVp1qi-2-9" target="KQHd_aGsmPLkwVp1qi-2-2">
          <mxGeometry relative="1" as="geometry" />
        </mxCell>
        <mxCell id="KQHd_aGsmPLkwVp1qi-2-11" style="edgeStyle=orthogonalEdgeStyle;rounded=0;orthogonalLoop=1;jettySize=auto;html=1;entryX=-0.019;entryY=0.816;entryDx=0;entryDy=0;entryPerimeter=0;" edge="1" parent="1" source="KQHd_aGsmPLkwVp1qi-2-3" target="gLgQugJnE0icH2_p7Kl2-2">
          <mxGeometry relative="1" as="geometry">
            <Array as="points">
              <mxPoint x="-160" y="323" />
              <mxPoint x="-160" y="65" />
            </Array>
          </mxGeometry>
        </mxCell>
        <mxCell id="KQHd_aGsmPLkwVp1qi-2-12" style="edgeStyle=orthogonalEdgeStyle;rounded=0;orthogonalLoop=1;jettySize=auto;html=1;entryX=0;entryY=0.5;entryDx=0;entryDy=0;" edge="1" parent="1" source="KQHd_aGsmPLkwVp1qi-2-8" target="gLgQugJnE0icH2_p7Kl2-33">
          <mxGeometry relative="1" as="geometry" />
        </mxCell>
        <mxCell id="gLgQugJnE0icH2_p7Kl2-1" value="User" style="swimlane;fontStyle=0;childLayout=stackLayout;horizontal=1;startSize=30;horizontalStack=0;resizeParent=1;resizeParentMax=0;resizeLast=0;collapsible=1;marginBottom=0;whiteSpace=wrap;html=1;movable=1;resizable=1;rotatable=1;deletable=1;editable=1;locked=0;connectable=1;" parent="1" vertex="1">
          <mxGeometry x="10" y="10" width="140" height="436" as="geometry" />
        </mxCell>
        <mxCell id="gLgQugJnE0icH2_p7Kl2-2" value="ID : string" style="text;strokeColor=none;fillColor=none;align=left;verticalAlign=middle;spacingLeft=4;spacingRight=4;overflow=hidden;points=[[0,0.5],[1,0.5]];portConstraint=eastwest;rotatable=0;whiteSpace=wrap;html=1;" parent="gLgQugJnE0icH2_p7Kl2-1" vertex="1">
          <mxGeometry y="30" width="140" height="30" as="geometry" />
        </mxCell>
        <mxCell id="gLgQugJnE0icH2_p7Kl2-3" value="username : string" style="text;strokeColor=none;fillColor=none;align=left;verticalAlign=middle;spacingLeft=4;spacingRight=4;overflow=hidden;points=[[0,0.5],[1,0.5]];portConstraint=eastwest;rotatable=0;whiteSpace=wrap;html=1;" parent="gLgQugJnE0icH2_p7Kl2-1" vertex="1">
          <mxGeometry y="60" width="140" height="30" as="geometry" />
        </mxCell>
        <mxCell id="4FOrvcWQ67L508ASZ2I5-2" value="userType: string" style="text;strokeColor=none;fillColor=none;align=left;verticalAlign=middle;spacingLeft=4;spacingRight=4;overflow=hidden;points=[[0,0.5],[1,0.5]];portConstraint=eastwest;rotatable=0;whiteSpace=wrap;html=1;" parent="gLgQugJnE0icH2_p7Kl2-1" vertex="1">
          <mxGeometry y="90" width="140" height="30" as="geometry" />
        </mxCell>
        <mxCell id="gLgQugJnE0icH2_p7Kl2-4" value="firstName : hash string" style="text;strokeColor=none;fillColor=none;align=left;verticalAlign=middle;spacingLeft=4;spacingRight=4;overflow=hidden;points=[[0,0.5],[1,0.5]];portConstraint=eastwest;rotatable=0;whiteSpace=wrap;html=1;" parent="gLgQugJnE0icH2_p7Kl2-1" vertex="1">
          <mxGeometry y="120" width="140" height="30" as="geometry" />
        </mxCell>
        <mxCell id="gLgQugJnE0icH2_p7Kl2-10" value="lastName : hash string" style="text;strokeColor=none;fillColor=none;align=left;verticalAlign=top;spacingLeft=4;spacingRight=4;overflow=hidden;rotatable=0;points=[[0,0.5],[1,0.5]];portConstraint=eastwest;whiteSpace=wrap;html=1;" parent="gLgQugJnE0icH2_p7Kl2-1" vertex="1">
          <mxGeometry y="150" width="140" height="26" as="geometry" />
        </mxCell>
        <mxCell id="gLgQugJnE0icH2_p7Kl2-11" value="password : hash string" style="text;strokeColor=none;fillColor=none;align=left;verticalAlign=top;spacingLeft=4;spacingRight=4;overflow=hidden;rotatable=0;points=[[0,0.5],[1,0.5]];portConstraint=eastwest;whiteSpace=wrap;html=1;" parent="gLgQugJnE0icH2_p7Kl2-1" vertex="1">
          <mxGeometry y="176" width="140" height="26" as="geometry" />
        </mxCell>
        <mxCell id="gLgQugJnE0icH2_p7Kl2-12" value="email : string" style="text;strokeColor=none;fillColor=none;align=left;verticalAlign=top;spacingLeft=4;spacingRight=4;overflow=hidden;rotatable=0;points=[[0,0.5],[1,0.5]];portConstraint=eastwest;whiteSpace=wrap;html=1;" parent="gLgQugJnE0icH2_p7Kl2-1" vertex="1">
          <mxGeometry y="202" width="140" height="26" as="geometry" />
        </mxCell>
        <mxCell id="gLgQugJnE0icH2_p7Kl2-13" value="adress : string" style="text;strokeColor=none;fillColor=none;align=left;verticalAlign=top;spacingLeft=4;spacingRight=4;overflow=hidden;rotatable=0;points=[[0,0.5],[1,0.5]];portConstraint=eastwest;whiteSpace=wrap;html=1;" parent="gLgQugJnE0icH2_p7Kl2-1" vertex="1">
          <mxGeometry y="228" width="140" height="26" as="geometry" />
        </mxCell>
        <mxCell id="gLgQugJnE0icH2_p7Kl2-14" value="about : string" style="text;strokeColor=none;fillColor=none;align=left;verticalAlign=top;spacingLeft=4;spacingRight=4;overflow=hidden;rotatable=0;points=[[0,0.5],[1,0.5]];portConstraint=eastwest;whiteSpace=wrap;html=1;" parent="gLgQugJnE0icH2_p7Kl2-1" vertex="1">
          <mxGeometry y="254" width="140" height="26" as="geometry" />
        </mxCell>
        <mxCell id="SF39tjZxRLqpiit2FNkD-4" value="token: string" style="text;strokeColor=none;fillColor=none;align=left;verticalAlign=top;spacingLeft=4;spacingRight=4;overflow=hidden;rotatable=0;points=[[0,0.5],[1,0.5]];portConstraint=eastwest;whiteSpace=wrap;html=1;" parent="gLgQugJnE0icH2_p7Kl2-1" vertex="1">
          <mxGeometry y="280" width="140" height="26" as="geometry" />
        </mxCell>
        <mxCell id="SF39tjZxRLqpiit2FNkD-5" value="profilePhoto: string" style="text;strokeColor=none;fillColor=none;align=left;verticalAlign=top;spacingLeft=4;spacingRight=4;overflow=hidden;rotatable=0;points=[[0,0.5],[1,0.5]];portConstraint=eastwest;whiteSpace=wrap;html=1;" parent="gLgQugJnE0icH2_p7Kl2-1" vertex="1">
          <mxGeometry y="306" width="140" height="26" as="geometry" />
        </mxCell>
        <mxCell id="gLgQugJnE0icH2_p7Kl2-80" value="Favoris : Object{ID Place, ID folder:number, Visited : boolean}" style="text;strokeColor=none;fillColor=none;align=left;verticalAlign=top;spacingLeft=4;spacingRight=4;overflow=hidden;rotatable=0;points=[[0,0.5],[1,0.5]];portConstraint=eastwest;whiteSpace=wrap;html=1;" parent="gLgQugJnE0icH2_p7Kl2-1" vertex="1">
          <mxGeometry y="332" width="140" height="52" as="geometry" />
        </mxCell>
        <mxCell id="SF39tjZxRLqpiit2FNkD-6" value="create_at: string" style="text;strokeColor=none;fillColor=none;align=left;verticalAlign=top;spacingLeft=4;spacingRight=4;overflow=hidden;rotatable=0;points=[[0,0.5],[1,0.5]];portConstraint=eastwest;whiteSpace=wrap;html=1;" parent="gLgQugJnE0icH2_p7Kl2-1" vertex="1">
          <mxGeometry y="384" width="140" height="26" as="geometry" />
        </mxCell>
        <mxCell id="SF39tjZxRLqpiit2FNkD-7" value="udpate_at: string" style="text;strokeColor=none;fillColor=none;align=left;verticalAlign=top;spacingLeft=4;spacingRight=4;overflow=hidden;rotatable=0;points=[[0,0.5],[1,0.5]];portConstraint=eastwest;whiteSpace=wrap;html=1;" parent="gLgQugJnE0icH2_p7Kl2-1" vertex="1">
          <mxGeometry y="410" width="140" height="26" as="geometry" />
        </mxCell>
        <mxCell id="KQHd_aGsmPLkwVp1qi-2-14" value="List Item" style="text;strokeColor=none;fillColor=none;align=left;verticalAlign=middle;spacingLeft=4;spacingRight=4;overflow=hidden;points=[[0,0.5],[1,0.5]];portConstraint=eastwest;rotatable=0;whiteSpace=wrap;html=1;" vertex="1" parent="1">
          <mxGeometry x="-690" y="200" width="80" height="30" as="geometry" />
        </mxCell>
      </root>
    </mxGraphModel>
  </diagram>
</mxfile>
